<svg xmlns="http://www.w3.org/2000/svg" xmlns:xlink="http://www.w3.org/1999/xlink" viewBox="0 0 62 62"><defs><style>.cls-1{isolation:isolate;}.cls-2{fill:#a4161a;}.cls-3{fill:#ba181b;opacity:0.4;mix-blend-mode:multiply;}.cls-4{fill:#fff;}.cls-5{mix-blend-mode:soft-light;fill:url(#radial-gradient);}</style><radialGradient id="radial-gradient" cx="62.66" cy="77.48" r="16.45" gradientTransform="translate(-65.34 -46.61) rotate(-20.35)" gradientUnits="userSpaceOnUse"><stop offset="0" stop-color="#fff"/><stop offset="1" stop-color="#fff" stop-opacity="0"/></radialGradient></defs><g class="cls-1"><g id="Layer_2" data-name="Layer 2"><g id="OBJECTS"><path class="cls-2" d="M62,31a31,31,0,0,0-62-.09H0V62H31.09A31,31,0,0,0,62,31Z"/><path class="cls-3" d="M31.09,62A31,31,0,0,0,52.7,8.87L0,62Z"/><path class="cls-4" d="M46.4,16.94a1,1,0,0,0-1.34-.08L29.94,30.22,19.15,21.14a1,1,0,0,0-1.34,1.35L28.25,34.81s.07,0,.11.08a.54.54,0,0,0,.09.12,1.38,1.38,0,0,0,.29.17,1.79,1.79,0,0,0,.38.22,1.6,1.6,0,0,0,.43.11,2.12,2.12,0,0,0,.43.06,2,2,0,0,0,.43-.06,1.6,1.6,0,0,0,.43-.11,1.79,1.79,0,0,0,.38-.22,1.78,1.78,0,0,0,.3-.17s.05-.08.09-.12.07,0,.1-.08L46.4,18.2A1,1,0,0,0,46.4,16.94Z"/><circle class="cls-5" cx="24.66" cy="18.18" r="16.45" transform="translate(-2.7 4.39) rotate(-9.65)"/></g></g></g></svg>